<svg width="46" height="46" viewBox="0 0 46 46" fill="none" xmlns="http://www.w3.org/2000/svg">
<g clip-path="url(#clip0_18_39)">
<path fill-rule="evenodd" clip-rule="evenodd" d="M0.5 23C0.5 41.1466 4.8534 45.5 23 45.5C41.1466 45.5 45.5 41.1466 45.5 23C45.5 4.8534 41.1466 0.5 23 0.5C4.8534 0.5 0.5 4.8534 0.5 23ZM9.57312 27.674L16.6307 11.6354C17.8215 8.93188 20.113 7.46551 23 7.46551C25.887 7.46551 28.1782 8.93152 29.3696 11.635L36.4269 27.674C36.7475 28.4531 37.0224 29.4614 37.0224 30.3318C37.0224 34.3186 34.2271 37.1138 30.2401 37.1138C28.8823 37.1138 27.8037 36.7675 26.7121 36.4167C25.5935 36.0574 24.4611 35.6935 23 35.6935C21.5558 35.6935 20.3956 36.0605 19.2548 36.4216C18.1516 36.7707 17.0663 37.1138 15.7599 37.1138C11.7732 37.1138 8.97758 34.3189 8.97758 30.3322C8.97758 29.4614 9.2525 28.4531 9.57312 27.674ZM23 14.4307L16.0345 30.1947C18.0968 29.2321 20.4796 28.7741 23 28.7741C25.4289 28.7741 27.9032 29.2321 29.8738 30.1944L23 14.4307Z" fill="#5A45FF"/>
</g>
<defs>
<clipPath id="clip0_18_39">
<rect width="45" height="45" fill="white" transform="translate(0.5 0.5)"/>
</clipPath>
</defs>
</svg>
