<svg width="35" height="35" viewBox="0 0 35 35" fill="none" xmlns="http://www.w3.org/2000/svg">
<path d="M29.8856 9.80734C30.259 9.32026 30.8365 9.03442 31.4504 9.03442H31.9463L25.5413 17.4096L32.0834 25.9628H31.5875C31.2848 25.9629 30.9862 25.8932 30.7148 25.7592C30.4434 25.6251 30.2066 25.4303 30.0227 25.1898L24.8077 18.3707L19.5913 25.1898C19.4076 25.4301 19.171 25.6248 18.8999 25.7588C18.6287 25.8929 18.3304 25.9627 18.0279 25.9628H17.5321L24.0727 17.4096L17.6692 9.03442H18.165C18.7775 9.03442 19.3565 9.32026 19.7284 9.80734L24.8063 16.4486L29.8856 9.80734Z" fill="black"/>
<path fill-rule="evenodd" clip-rule="evenodd" d="M8.11267 25.0046C10.9185 26.0283 13.8527 24.8675 15.3445 22.6027C15.6362 22.1579 16.1175 21.8765 16.6512 21.8765H17.0231C15.6523 25.4304 11.5981 27.4998 7.74371 26.1129C4.7935 25.0513 2.91663 22.1361 2.91663 19.0006V15.75C2.91791 14.7328 3.1316 13.727 3.544 12.7972C3.9564 11.8673 4.55843 11.0338 5.31154 10.35C6.06466 9.6662 6.95226 9.14721 7.91751 8.82624C8.88277 8.50528 9.90442 8.38941 10.917 8.48606C14.6985 8.84043 17.5102 12.1654 17.5102 15.9629V18.375H4.08475V19.0225C4.08475 21.6504 5.64371 24.1048 8.11267 25.0046ZM10.2127 9.61918C8.58839 9.62226 7.03152 10.2689 5.88298 11.4174C4.73444 12.566 4.08783 14.1228 4.08475 15.7471V17.2083H16.3435V15.75C16.3412 14.125 15.6947 12.5671 14.5458 11.4179C13.3968 10.2687 11.8392 9.62188 10.2141 9.61918" fill="black"/>
</svg>
