<svg width="46" height="45" viewBox="0 0 46 45" fill="none" xmlns="http://www.w3.org/2000/svg">
<g clip-path="url(#clip0_17_40)">
<path d="M16.4961 45.3516C20.6797 45.3516 24.0547 41.9766 24.0547 37.793V30.2344H16.4961C12.3125 30.2344 8.9375 33.6094 8.9375 37.793C8.9375 41.9766 12.3125 45.3516 16.4961 45.3516Z" fill="#0ACF83"/>
<path d="M8.9375 22.6758C8.9375 18.4922 12.3125 15.1172 16.4961 15.1172H24.0547V30.2344H16.4961C12.3125 30.2344 8.9375 26.8594 8.9375 22.6758Z" fill="#A259FF"/>
<path d="M8.9375 7.55859C8.9375 3.375 12.3125 0 16.4961 0H24.0547V15.1172H16.4961C12.3125 15.1172 8.9375 11.7422 8.9375 7.55859Z" fill="#F24E1E"/>
<path d="M24.0547 0H31.6133C35.7969 0 39.1719 3.375 39.1719 7.55859C39.1719 11.7422 35.7969 15.1172 31.6133 15.1172H24.0547V0Z" fill="#FF7262"/>
<path d="M39.1719 22.6758C39.1719 26.8594 35.7969 30.2344 31.6133 30.2344C27.4297 30.2344 24.0547 26.8594 24.0547 22.6758C24.0547 18.4922 27.4297 15.1172 31.6133 15.1172C35.7969 15.1172 39.1719 18.4922 39.1719 22.6758Z" fill="#1ABCFE"/>
</g>
<defs>
<clipPath id="clip0_17_40">
<rect width="45" height="45" fill="white" transform="translate(0.5)"/>
</clipPath>
</defs>
</svg>
