<svg width="35" height="35" viewBox="0 0 35 35" fill="none" xmlns="http://www.w3.org/2000/svg">
<g clip-path="url(#clip0_3_41)">
<path d="M34.1078 15.9627L19.037 0.892495C18.1697 0.0246045 16.762 0.0246045 15.8933 0.892495L12.7641 4.02226L16.7338 7.99203C17.6567 7.68058 18.7143 7.88949 19.4496 8.62476C20.1887 9.36468 20.396 10.4314 20.0769 11.3572L23.9028 15.1834C24.8284 14.8643 25.8967 15.0705 26.6356 15.811C27.6691 16.8437 27.6691 18.518 26.6356 19.5513C26.3899 19.7971 26.0983 19.992 25.7773 20.125C25.4563 20.258 25.1123 20.3265 24.7648 20.3265C24.4174 20.3265 24.0733 20.258 23.7523 20.125C23.4314 19.992 23.1397 19.7971 22.8941 19.5513C22.5252 19.182 22.2737 18.7118 22.1713 18.2C22.0688 17.6881 22.1201 17.1573 22.3185 16.6745L18.7507 13.1067L18.7502 22.4968C19.009 22.6242 19.2454 22.7931 19.4499 22.9966C20.4829 24.0294 20.4829 25.7031 19.4499 26.7381C18.4166 27.7709 16.7418 27.7709 15.7095 26.7381C14.6765 25.7034 14.6765 24.0297 15.7095 22.9966C15.9573 22.749 16.2516 22.5529 16.5755 22.4197V12.9426C16.2512 12.8099 15.9568 12.6137 15.7095 12.3654C14.927 11.5834 14.7386 10.4349 15.14 9.47351L11.2263 5.5598L0.892504 15.893C0.475598 16.31 0.241394 16.8756 0.241394 17.4653C0.241394 18.055 0.475598 18.6205 0.892504 19.0375L15.9636 34.1078C16.8314 34.9757 18.2386 34.9757 19.1078 34.1078L34.1081 19.1075C34.5249 18.6904 34.759 18.1248 34.7589 17.5351C34.7589 16.9454 34.5247 16.3798 34.1078 15.9627Z" fill="#F34F29"/>
</g>
<defs>
<clipPath id="clip0_3_41">
<rect width="35" height="35" fill="white"/>
</clipPath>
</defs>
</svg>
