<svg width="35" height="35" viewBox="0 0 35 35" fill="none" xmlns="http://www.w3.org/2000/svg">
<g clip-path="url(#clip0_3_25)">
<path d="M0 0H35V35H0V0Z" fill="#F7DF1E"/>
<path d="M9.20283 29.2485L11.8812 27.6275C12.398 28.5437 12.868 29.3189 13.9955 29.3189C15.0763 29.3189 15.7578 28.8961 15.7578 27.2517V16.0684H19.0469V27.2982C19.0469 30.7048 17.0499 32.2555 14.1365 32.2555C11.5053 32.2555 9.97803 30.8928 9.2027 29.2482M20.8334 28.896L23.5114 27.3455C24.2165 28.4968 25.1328 29.3425 26.7537 29.3425C28.1166 29.3425 28.9856 28.6611 28.9856 27.7213C28.9856 26.5937 28.0929 26.1942 26.5892 25.5366L25.7671 25.1838C23.3941 24.1739 21.8201 22.9051 21.8201 20.2268C21.8201 17.7599 23.6995 15.8802 26.6364 15.8802C28.7274 15.8802 30.231 16.6087 31.3116 18.5117L28.7506 20.1564C28.1866 19.1462 27.5761 18.7468 26.6363 18.7468C25.6729 18.7468 25.0621 19.3577 25.0621 20.1564C25.0621 21.1431 25.6729 21.5427 27.0825 22.1536L27.9047 22.5059C30.7006 23.7043 32.2747 24.9258 32.2747 27.6744C32.2747 30.6349 29.9488 32.2559 26.8241 32.2559C23.7699 32.2559 21.7964 30.7993 20.8332 28.8961" fill="black"/>
</g>
<defs>
<clipPath id="clip0_3_25">
<rect width="35" height="35" fill="white"/>
</clipPath>
</defs>
</svg>
