<svg width="35" height="35" viewBox="0 0 35 35" fill="none" xmlns="http://www.w3.org/2000/svg">
<path d="M7.26676 10.4957C9.02901 10.4957 10.4576 9.0671 10.4576 7.30485C10.4576 5.5426 9.02901 4.11401 7.26676 4.11401C5.50451 4.11401 4.07593 5.5426 4.07593 7.30485C4.07593 9.0671 5.50451 10.4957 7.26676 10.4957Z" fill="black"/>
<path d="M13.4705 12.9136V30.6163H18.967V21.8619C18.967 19.5519 19.4016 17.3148 22.2657 17.3148C25.0905 17.3148 25.1255 19.9559 25.1255 22.0077V30.6177H30.6249V20.9096C30.6249 16.1409 29.5982 12.4761 24.0245 12.4761C21.3484 12.4761 19.5547 13.9446 18.8211 15.3344H18.7468V12.9136H13.4705ZM4.51343 12.9136H10.0186V30.6163H4.51343V12.9136Z" fill="black"/>
</svg>
