<svg width="35" height="40" viewBox="0 0 35 40" fill="none" xmlns="http://www.w3.org/2000/svg">
<g clip-path="url(#clip0_3_52)">
<path d="M17.5 39.9259C16.9566 39.9259 16.4495 39.7792 15.9786 39.5224L11.1607 36.6247C10.4362 36.2212 10.7985 36.0745 11.0158 36.0012C11.9938 35.6711 12.1749 35.5977 13.1892 35.0107C13.298 34.9374 13.4429 34.974 13.5514 35.0474L17.2464 37.2849C17.3913 37.3583 17.5724 37.3583 17.6811 37.2849L32.1347 28.812C32.2796 28.7386 32.352 28.5919 32.352 28.4085V11.499C32.352 11.3156 32.2796 11.1689 32.1347 11.0956L17.6811 2.65915C17.5362 2.5858 17.3551 2.5858 17.2464 2.65915L2.79282 11.0957C2.64793 11.169 2.57548 11.3524 2.57548 11.4992V28.4085C2.57548 28.5552 2.64793 28.7386 2.79282 28.812L6.74138 31.1227C8.87866 32.223 10.2188 30.9393 10.2188 29.6556V12.9661C10.2188 12.7461 10.4 12.526 10.6536 12.526H12.5011C12.7184 12.526 12.9358 12.7094 12.9358 12.9661V29.6554C12.9358 32.5531 11.378 34.2403 8.66119 34.2403C7.82807 34.2403 7.17606 34.2403 5.32869 33.3234L1.52502 31.1227C0.583227 30.5724 0.00366211 29.5454 0.00366211 28.445V11.5358C0.00366211 10.4355 0.583227 9.4085 1.52502 8.85818L15.9786 0.385243C16.8842 -0.128252 18.1158 -0.128252 19.0213 0.385243L33.4749 8.85818C34.4167 9.40836 34.9963 10.4353 34.9963 11.5358V28.4452C34.9963 29.5455 34.4167 30.5725 33.4749 31.1227L19.0213 39.5959C18.5504 39.816 18.0071 39.926 17.5 39.926M21.9555 28.2985C15.6162 28.2985 14.3122 25.3642 14.3122 22.8699C14.3122 22.6499 14.4933 22.4298 14.7469 22.4298H16.6305C16.8478 22.4298 17.0291 22.5765 17.0291 22.7966C17.3189 24.7405 18.152 25.6943 21.9917 25.6943C25.0346 25.6943 26.3388 24.9974 26.3388 23.3469C26.3388 22.3931 25.9765 21.6962 21.2311 21.2193C17.2826 20.8158 14.8193 19.9356 14.8193 16.7446C14.8193 13.7733 17.2825 12.0128 21.4122 12.0128C26.0488 12.0128 28.331 13.6266 28.6208 17.1479C28.6208 17.258 28.5846 17.368 28.5121 17.478C28.4397 17.5513 28.331 17.6247 28.2223 17.6247H26.3388C26.1575 17.6247 25.9765 17.478 25.9402 17.2946C25.5055 15.2773 24.3826 14.6171 21.4122 14.6171C18.0797 14.6171 17.6811 15.7908 17.6811 16.6711C17.6811 17.7349 18.152 18.0648 22.6437 18.6517C27.0994 19.2385 29.2004 20.0823 29.2004 23.2367C29.1641 26.4646 26.5561 28.2985 21.9555 28.2985Z" fill="#539E43"/>
</g>
<defs>
<clipPath id="clip0_3_52">
<rect width="35" height="40" fill="white"/>
</clipPath>
</defs>
</svg>
