<svg width="46" height="31" viewBox="0 0 46 31" fill="none" xmlns="http://www.w3.org/2000/svg">
<path d="M25.6996 30.5001H42.3493C42.8816 30.5001 43.3906 30.3127 43.8498 30.0491C44.3093 29.7854 44.7849 29.4556 45.0504 28.9993C45.3158 28.543 45.5 28.0258 45.5 27.5002C45.5 26.9746 45.3158 26.4557 45.0504 25.9998L33.8004 6.65046C33.5349 6.19449 33.2097 5.86296 32.7492 5.59894C32.2879 5.33492 31.6312 5.14929 31.0986 5.14929C30.5663 5.14929 30.059 5.33668 29.5999 5.59894C29.1407 5.86121 28.8152 6.19414 28.5498 6.65046L25.6993 11.6005L19.9994 1.99894C19.734 1.54296 19.4088 1.06378 18.9496 0.800112C18.4905 0.53644 17.9811 0.499878 17.4488 0.499878C16.9166 0.499878 16.4093 0.53644 15.9498 0.800112C15.4906 1.06378 15.0146 1.54296 14.7492 1.99894L0.800234 25.9991C0.534805 26.455 0.5 26.9729 0.5 27.5002C0.5 28.0276 0.534805 28.543 0.800234 28.9989C1.06531 29.4549 1.53957 29.7864 2.00082 30.0487C2.46172 30.3113 2.96902 30.5001 3.49988 30.5001H14C18.1607 30.5001 21.1891 28.6333 23.2999 25.0987L28.3993 16.2499L31.0986 11.6001L39.3491 25.6992H28.3996L25.6996 30.5001ZM13.8488 25.6988H6.49977L17.4499 6.79882L23 16.2502L19.3237 22.6582C17.9224 24.9514 16.3235 25.6988 13.8488 25.6988Z" fill="#00DC82"/>
</svg>
