<svg width="46" height="45" viewBox="0 0 46 45" fill="none" xmlns="http://www.w3.org/2000/svg">
<path d="M33.4797 32.3831C33.7557 30.0864 33.6731 29.7492 35.3838 30.1215L35.818 30.1595C37.1335 30.2193 38.8544 29.9479 39.8655 29.4782C42.0421 28.4681 43.3323 26.7824 41.1867 27.225C36.2915 28.2351 35.9551 26.5774 35.9551 26.5774C41.1241 18.9081 43.2848 9.17228 41.4194 6.78904C36.3323 0.289002 27.5267 3.36271 27.3794 3.44217L27.3323 3.45096C26.3652 3.25021 25.2827 3.13033 24.0667 3.11064C21.8515 3.07408 20.1706 3.69142 18.8955 4.65822C18.8955 4.65822 3.18666 -1.81369 3.91756 12.7972C4.07295 15.9054 8.37256 36.3161 13.5012 30.1511C15.3757 27.8969 17.1869 25.9907 17.1869 25.9907C18.0862 26.588 19.1634 26.8931 20.2926 26.7835L20.3802 26.7089C20.3528 26.9888 20.3647 27.2626 20.415 27.5868C19.0942 29.063 19.4823 29.3221 16.841 29.8656C14.1684 30.4162 15.7385 31.3967 16.7633 31.653C18.0061 31.9637 20.8808 32.4039 22.8235 29.6849L22.7462 29.995C23.2644 30.4098 23.2296 32.9752 23.3027 34.8079C23.3762 36.6409 23.4989 38.3513 23.8726 39.3599C24.2463 40.3685 24.6872 42.9655 28.1585 42.2216C31.0596 41.6015 33.2776 40.7067 33.4797 32.3831Z" fill="black"/>
<path d="M27.0282 44.0354C25.493 44.0354 24.4931 43.4416 23.886 42.8682C22.9695 42.0033 22.6059 40.8892 22.3887 40.2237L22.2948 39.946C21.8575 38.7654 21.7091 37.0656 21.6212 34.8768C21.6079 34.5481 21.5987 34.2095 21.5885 33.8506C21.5811 33.588 21.572 33.2586 21.5586 32.914C21.0055 33.1778 20.4184 33.3633 19.8142 33.4653C18.7317 33.6502 17.5681 33.5904 16.3548 33.287C15.4988 33.0729 14.6093 32.6293 14.1024 31.9441C12.6247 33.2382 11.2153 33.0627 10.4475 32.8064C9.09294 32.3547 7.88075 31.0852 6.74134 28.9263C5.92958 27.3882 5.14454 25.3843 4.40766 22.9697C3.12446 18.765 2.30919 14.3364 2.23677 12.8823C2.00895 8.33137 3.23415 5.0766 5.87755 3.20946C10.0474 0.264064 16.3654 1.99621 18.6688 2.78266C20.2164 1.84996 22.0371 1.3961 24.0945 1.42879C25.1994 1.44672 26.2516 1.54375 27.229 1.71813C28.2485 1.3975 30.2623 0.937307 32.5675 0.966135C36.8147 1.01676 40.3342 2.67192 42.7449 5.75266C44.4654 7.95063 43.6146 12.5663 42.9547 15.1222C42.0259 18.7172 40.3985 22.5408 38.3995 25.8694C38.9424 25.8733 39.7288 25.8082 40.8468 25.5773C43.0525 25.122 43.6976 26.3047 43.8727 26.8341C44.574 28.9582 41.5253 30.5635 40.5743 31.005C39.3558 31.5707 37.3691 31.9152 35.7421 31.8407L35.6711 31.8361L35.2436 31.7985L35.2014 32.155L35.1606 32.5034C35.0513 36.7218 34.4487 39.3933 33.2087 41.1585C31.909 43.0091 30.1027 43.5277 28.5115 43.8687C27.9687 43.9847 27.4754 44.0354 27.0282 44.0354ZM23.7974 28.6823C24.7884 29.4754 24.8753 30.9678 24.953 33.7567C24.9628 34.1048 24.972 34.4342 24.9843 34.7418C25.0215 35.6734 25.1091 37.8549 25.4508 38.7767C25.499 38.9071 25.5422 39.0393 25.5879 39.1796C25.9686 40.3454 26.1595 40.93 27.8059 40.5781C29.1879 40.2817 29.8984 40.0159 30.4546 39.2242C31.2628 38.0732 31.7149 35.7578 31.7979 32.3424L33.4794 32.3832L31.8095 32.1828L31.8587 31.7658C32.0187 30.3912 32.134 29.3984 33.0526 28.7417C33.7899 28.215 34.6297 28.266 35.2988 28.3866C34.5636 27.8311 34.3604 27.1797 34.3063 26.9125L34.166 26.2217L34.5601 25.637C36.8302 22.2691 38.7019 18.1298 39.6961 14.2802C40.7177 10.3247 40.4063 8.22414 40.0948 7.82688C35.9713 2.55801 28.8209 4.73348 28.0741 4.98028L27.9479 5.04848L27.3151 5.16625L26.991 5.0991C26.0973 4.91348 25.1045 4.81082 24.0403 4.7936C22.3683 4.76547 21.0193 5.16063 19.9133 5.99981L19.1459 6.58164L18.2554 6.21496C16.3527 5.43695 10.7643 3.87285 7.81536 5.96149C6.17848 7.12094 5.43282 9.39274 5.59876 12.7139C5.6536 13.8105 6.39856 17.9614 7.62763 21.9871C9.32602 27.5506 10.8694 29.3988 11.5138 29.6136C11.6263 29.6515 11.9181 29.4248 12.2085 29.076C13.4193 27.6246 14.6731 26.2095 15.9681 24.8327L16.9419 23.8079L18.1193 24.5901C18.5939 24.9054 19.1174 25.0844 19.6549 25.1181L22.4629 22.7233L22.0561 26.8745C22.047 26.9677 22.0424 27.0946 22.079 27.3302L22.2013 28.117L21.6704 28.7104L21.6093 28.7793L23.1519 29.4912L23.7974 28.6823Z" fill="black"/>
<path d="M41.1868 27.225C36.2912 28.2351 35.9548 26.5774 35.9548 26.5774C41.1238 18.9078 43.2845 9.17159 41.4198 6.78905C36.3327 0.289363 27.5264 3.36307 27.3795 3.44288L27.332 3.45132C26.3649 3.25057 25.2824 3.13104 24.0657 3.11136C21.8505 3.07514 20.1703 3.69214 18.8952 4.65893C18.8952 4.65893 3.18601 -1.81263 3.91656 12.798C4.07195 15.9065 8.37156 36.3171 13.5002 30.1521C15.3747 27.8979 17.1856 25.9917 17.1856 25.9917C18.0852 26.589 19.1621 26.8942 20.2909 26.7845L20.3788 26.71C20.3514 26.9898 20.3641 27.2637 20.414 27.5878C19.0928 29.064 19.4809 29.3232 16.8396 29.8667C14.1671 30.4172 15.7371 31.3977 16.7623 31.654C18.0047 31.9648 20.8798 32.4049 22.8222 29.686L22.7445 29.996C23.2623 30.4109 23.6259 32.6932 23.565 34.7622C23.5042 36.8311 23.4631 38.2518 23.8712 39.3613C24.2791 40.4708 24.6855 42.9669 28.1575 42.223C31.0586 41.6015 32.5619 39.9903 32.7714 37.3029C32.9198 35.3922 33.2555 35.6748 33.277 33.9666L33.5466 33.158C33.8574 30.568 33.5958 29.7327 35.3835 30.1212L35.8177 30.1592C37.1332 30.2189 38.8548 29.9475 39.8656 29.4778C42.0418 28.4685 43.3323 26.7824 41.1868 27.225Z" fill="#336791"/>
<path d="M27.2036 42.9986C24.3096 42.9986 23.3927 40.7068 23.0176 39.7695C22.4684 38.3959 22.35 33.0655 22.4723 28.6942C22.4741 28.6205 22.4905 28.5479 22.5205 28.4805C22.5505 28.4132 22.5936 28.3524 22.6472 28.3017C22.7008 28.2511 22.7638 28.2115 22.8328 28.1854C22.9017 28.1592 22.9752 28.147 23.0489 28.1493C23.1225 28.1513 23.195 28.1678 23.2623 28.1978C23.3295 28.2279 23.3902 28.2709 23.4408 28.3244C23.4914 28.3779 23.531 28.4409 23.5572 28.5097C23.5835 28.5786 23.5959 28.6519 23.5938 28.7255C23.4528 33.7673 23.6529 38.3362 24.0593 39.3529C24.6935 40.9381 25.6554 42.3246 28.3747 41.7421C30.9562 41.1884 31.923 40.2096 32.3537 37.7132C32.6842 35.7975 33.3377 30.3476 33.4182 29.2722C33.4236 29.1987 33.4434 29.127 33.4766 29.0612C33.5097 28.9954 33.5555 28.9367 33.6114 28.8887C33.6672 28.8406 33.732 28.804 33.802 28.781C33.872 28.758 33.9459 28.7491 34.0194 28.7547C34.1677 28.7659 34.3054 28.8355 34.4025 28.9482C34.4995 29.061 34.5478 29.2075 34.5369 29.3559C34.4529 30.4756 33.8025 35.915 33.4593 37.9041C32.951 40.8527 31.6365 42.19 28.6099 42.839C28.0956 42.949 27.6283 42.9982 27.2036 42.9986ZM11.5113 31.8045C11.2583 31.8037 11.0071 31.7621 10.7674 31.6814C8.88759 31.0543 7.09708 27.9929 5.44544 22.5812C4.18825 18.462 3.39161 14.1624 3.32165 12.7649C3.11458 8.62211 4.18122 5.69113 6.49274 4.05391C11.0655 0.813905 18.7581 3.89922 19.0833 4.03211C19.221 4.08838 19.3308 4.19707 19.3884 4.33427C19.446 4.47147 19.4468 4.62595 19.3905 4.76371C19.3342 4.90147 19.2256 5.01124 19.0884 5.06886C18.9512 5.12649 18.7967 5.12725 18.6589 5.07098C18.5847 5.04074 11.2083 2.08551 7.13892 4.97078C5.16243 6.37211 4.25505 8.97578 4.44173 12.709C4.50044 13.8864 5.2447 18.0827 6.51806 22.2536C7.99251 27.0848 9.67052 30.1332 11.1221 30.6173C11.3499 30.6932 12.0432 30.9242 13.0343 29.7324C14.19 28.3443 15.389 26.9929 16.6297 25.6803C16.7335 25.5767 16.8737 25.5179 17.0203 25.5165C17.1669 25.515 17.3083 25.571 17.4142 25.6724C17.52 25.7739 17.582 25.9127 17.5867 26.0593C17.5915 26.2058 17.5387 26.3484 17.4397 26.4565C17.4228 26.4741 15.7357 28.2379 13.897 30.4499C13.0262 31.4972 12.1916 31.8045 11.5113 31.8045ZM35.9199 27.0777C35.8182 27.0776 35.7185 27.0498 35.6313 26.9974C35.5442 26.9449 35.473 26.8698 35.4252 26.78C35.3775 26.6902 35.3551 26.5891 35.3603 26.4876C35.3656 26.386 35.3984 26.2878 35.4552 26.2034C40.6804 18.4497 42.5145 9.0809 40.9438 7.07348C38.9666 4.54715 36.1748 3.22773 32.6455 3.15144C30.0323 3.09519 27.9553 3.76246 27.6157 3.87883L27.5302 3.91363C27.1889 4.02086 26.927 3.83383 26.8282 3.61515C26.7718 3.48987 26.7633 3.3483 26.8042 3.21716C26.845 3.08601 26.9325 2.97435 27.05 2.90324C27.0662 2.89375 27.1175 2.87195 27.2008 2.84137C27.7777 2.63008 29.8864 1.99726 32.4982 2.02715C36.4033 2.06863 39.6293 3.57437 41.8265 6.3823C42.8661 7.71086 42.8686 10.7716 41.8332 14.7801C40.7778 18.867 38.7918 23.2591 36.385 26.8306C36.2775 26.9912 36.1003 27.0777 35.9199 27.0777ZM36.1871 30.6672C35.2949 30.6672 34.495 30.5413 34.0162 30.2545C33.524 29.9595 33.4302 29.5587 33.4179 29.346C33.2836 26.987 34.5851 26.5764 35.2488 26.389C35.1563 26.2491 35.0249 26.0846 34.8888 25.9148C34.5017 25.431 33.9716 24.7687 33.5631 23.778C33.4991 23.6233 33.2987 23.2636 33.0667 22.847C31.8084 20.5907 29.1903 15.8956 30.8722 13.4912C31.6506 12.3786 33.2006 11.9405 35.4843 12.1848C34.8125 10.138 31.6133 3.73539 24.022 3.61094C21.739 3.57297 19.8665 4.27504 18.4596 5.6957C15.3096 8.87699 15.4235 14.6331 15.4252 14.6908C15.4272 14.7644 15.4146 14.8377 15.3882 14.9065C15.3618 14.9753 15.3221 15.0382 15.2714 15.0916C15.2207 15.145 15.16 15.188 15.0927 15.218C15.0254 15.2479 14.9529 15.2643 14.8793 15.2663C14.8056 15.2682 14.7323 15.2556 14.6636 15.2293C14.5948 15.2029 14.5319 15.1632 14.4784 15.1125C14.425 15.0618 14.3821 15.0011 14.3521 14.9338C14.3221 14.8665 14.3057 14.7939 14.3038 14.7203C14.2967 14.4647 14.1793 8.42418 17.6626 4.90609C19.2928 3.25973 21.4387 2.44691 24.0406 2.48945C28.8971 2.56926 32.0232 5.03828 33.7902 7.09527C35.7164 9.33719 36.6607 11.8101 36.7384 12.6355C36.7964 13.2494 36.3559 13.3721 36.2669 13.3904L36.0644 13.3949C33.8232 13.036 32.3853 13.2852 31.7908 14.1346C30.5115 15.9631 32.9883 20.4044 34.0458 22.3011C34.3158 22.7848 34.5105 23.1346 34.5998 23.3505C34.9472 24.1928 35.4003 24.7588 35.7642 25.2138C36.0845 25.6138 36.3618 25.9608 36.461 26.3679C36.507 26.4488 37.1606 27.4156 41.0387 26.6151C42.0107 26.4147 42.5936 26.5859 42.7719 27.1248C43.1224 28.1848 41.1558 29.4212 40.067 29.9268C39.0914 30.3803 37.5343 30.6672 36.1871 30.6672ZM34.5362 29.2536C34.6592 29.3777 35.2748 29.5918 36.5496 29.5369C37.683 29.4884 38.8783 29.242 39.5955 28.909C40.5127 28.4829 41.1252 28.0066 41.4423 27.6814L41.2665 27.7137C38.7869 28.2256 37.033 28.1574 36.0535 27.5109C35.9877 27.4675 35.9243 27.4204 35.8637 27.3699C35.7575 27.4117 35.6594 27.4391 35.5895 27.4588C35.034 27.6146 34.4595 27.7759 34.5362 29.2536ZM18.5183 32.3877C17.9024 32.3877 17.2541 32.3037 16.5921 32.1381C15.9062 31.9666 14.7499 31.4501 14.7675 30.6018C14.7875 29.6501 16.1716 29.3646 16.6926 29.2574C18.5749 28.8696 18.6976 28.7143 19.2858 27.9672C19.4573 27.7496 19.6707 27.4785 19.9618 27.1537C20.3939 26.6699 20.866 26.4249 21.3652 26.4249C21.7129 26.4249 21.9981 26.5427 22.1865 26.6211C22.787 26.87 23.2879 27.4718 23.494 28.1915C23.6799 28.8408 23.591 29.4659 23.2443 29.9514C22.1063 31.545 20.4719 32.3877 18.5183 32.3877ZM15.9793 30.65C16.1484 30.7807 16.4873 30.9555 16.8645 31.0497C17.4379 31.1931 17.9941 31.2659 18.5186 31.2659C20.1168 31.2659 21.4 30.6043 22.332 29.2993C22.5265 29.0271 22.4681 28.6816 22.4161 28.4998C22.3071 28.1191 22.0364 27.7728 21.7576 27.6571C21.6064 27.5945 21.4809 27.5467 21.3656 27.5467C21.3037 27.5467 21.1153 27.5467 20.7982 27.9014C20.5793 28.1475 20.369 28.401 20.1675 28.6615C19.4348 29.5918 19.0991 29.9075 16.9194 30.3564C16.3875 30.4654 16.1147 30.5765 15.9793 30.65ZM20.2926 28.0625C20.1587 28.0622 20.0293 28.0141 19.9277 27.9268C19.8262 27.8396 19.7592 27.7188 19.7389 27.5864C19.7248 27.4933 19.7155 27.3996 19.7108 27.3055C18.282 27.2788 16.9036 26.6657 15.857 25.5737C14.5337 24.1932 13.9315 22.2803 14.205 20.326C14.502 18.2036 14.3909 16.3301 14.3312 15.3236C14.3147 15.0437 14.3027 14.8416 14.3034 14.7017C14.3045 14.5241 14.308 14.0534 15.8816 13.2557C16.4413 12.972 17.5634 12.477 18.7893 12.3501C20.8203 12.1402 22.1591 13.0448 22.5599 14.8975C23.6416 19.8995 22.6456 22.1119 21.9183 23.7277C21.7829 24.0286 21.6549 24.3127 21.5526 24.588L21.4623 24.8305C21.078 25.861 20.7458 26.7511 20.8477 27.4159C20.8589 27.4887 20.8557 27.563 20.8381 27.6346C20.8206 27.7061 20.7892 27.7735 20.7456 27.8329C20.702 27.8923 20.6471 27.9425 20.5841 27.9807C20.5211 28.0189 20.4512 28.0443 20.3784 28.0554L20.2926 28.0625ZM15.4288 14.8571L15.4506 15.2575C15.5124 16.303 15.6277 18.2486 15.3156 20.4817C15.0902 22.0936 15.5824 23.6669 16.6666 24.7975C17.5234 25.6912 18.6508 26.1844 19.8096 26.1844H19.8335C19.9632 25.6377 20.1787 25.0605 20.4108 24.4386L20.5004 24.1974C20.6161 23.8866 20.7514 23.5857 20.8949 23.2671C21.5948 21.7118 22.4663 19.7758 21.4626 15.1348C21.264 14.2155 20.782 13.6836 19.9899 13.5081C18.3629 13.1488 15.9382 14.3726 15.4288 14.8571ZM18.8143 14.6191C18.7862 14.8173 19.1775 15.3468 19.6879 15.4175C20.1974 15.4888 20.6333 15.0747 20.6611 14.8764C20.6888 14.6781 20.2979 14.4595 19.7874 14.3884C19.277 14.3174 18.8414 14.4208 18.8143 14.6191ZM19.805 15.6126L19.6619 15.6027C19.3455 15.5588 19.0256 15.3595 18.8066 15.0691C18.7296 14.9671 18.6041 14.7695 18.629 14.593C18.6645 14.3343 18.9802 14.1793 19.4728 14.1793C19.5828 14.1793 19.6974 14.1873 19.8127 14.2035C20.082 14.2408 20.332 14.3185 20.5166 14.4215C20.8365 14.6001 20.86 14.7994 20.8456 14.9024C20.8063 15.1882 20.3517 15.6126 19.805 15.6126ZM19.0003 14.6521C19.0161 14.7745 19.3192 15.178 19.7136 15.2325L19.8054 15.2389C20.1696 15.2389 20.4417 14.9523 20.4737 14.8585C20.4399 14.7945 20.2058 14.6356 19.7618 14.5737C19.6661 14.5602 19.5697 14.5533 19.4731 14.553C19.1877 14.553 19.0361 14.6173 19.0003 14.6521ZM34.3302 14.2144C34.3579 14.4127 33.967 14.9421 33.4569 15.0132C32.9471 15.0842 32.5108 14.6704 32.4827 14.4721C32.456 14.2738 32.8469 14.0548 33.3567 13.9841C33.8665 13.9128 34.302 14.0165 34.3302 14.2144ZM33.3391 15.1144C32.8483 15.1144 32.4247 14.7326 32.3899 14.4848C32.3495 14.1873 32.8392 13.9613 33.3433 13.8913C33.4544 13.8759 33.5645 13.8681 33.6703 13.8681C34.1055 13.8681 34.3938 13.9957 34.4226 14.2018C34.4413 14.335 34.339 14.5407 34.1628 14.7263C34.0465 14.8483 33.8021 15.0596 33.4692 15.1056L33.3391 15.1144ZM33.6706 14.0552C33.5731 14.0552 33.4728 14.0623 33.3697 14.0766C32.8631 14.1473 32.5608 14.3505 32.5755 14.4595C32.5924 14.5793 32.9158 14.9277 33.3395 14.9277L33.4439 14.9203C33.7206 14.882 33.9283 14.7013 34.0275 14.5973C34.1832 14.4338 34.2451 14.2798 34.2377 14.2274C34.2279 14.1578 34.0408 14.0552 33.6706 14.0552ZM35.0646 25.6015C34.9629 25.6016 34.8632 25.574 34.7761 25.5217C34.6889 25.4695 34.6176 25.3945 34.5698 25.3048C34.5219 25.2151 34.4994 25.1141 34.5046 25.0126C34.5098 24.9111 34.5424 24.8129 34.5991 24.7286C35.7937 22.9444 35.575 21.1251 35.3638 19.3655C35.2734 18.616 35.1806 17.8408 35.2045 17.0969C35.2291 16.3315 35.3265 15.7001 35.4204 15.0895C35.5318 14.3659 35.6373 13.6825 35.5937 12.8711C35.5897 12.7975 35.6003 12.7239 35.6247 12.6545C35.6492 12.585 35.6871 12.521 35.7363 12.4662C35.7855 12.4114 35.845 12.3668 35.9115 12.335C35.9779 12.3032 36.0499 12.2848 36.1235 12.2808C36.197 12.2768 36.2706 12.2874 36.3401 12.3119C36.4096 12.3364 36.4735 12.3743 36.5284 12.4235C36.639 12.5228 36.7057 12.6621 36.7138 12.8106C36.7637 13.738 36.6445 14.5115 36.5292 15.26C36.4402 15.8376 36.3481 16.4349 36.326 17.1327C36.3045 17.7916 36.3886 18.4912 36.4775 19.2316C36.7025 21.1026 36.9574 23.2232 35.5315 25.3526C35.48 25.4292 35.4105 25.492 35.3291 25.5354C35.2477 25.5788 35.1568 25.6015 35.0646 25.6015Z" fill="white"/>
</svg>
