<svg width="46" height="45" viewBox="0 0 46 45" fill="none" xmlns="http://www.w3.org/2000/svg">
<g clip-path="url(#clip0_17_38)">
<path d="M23.0015 9.00073C17.0013 9.00073 13.2526 11.9996 11.7515 17.9997C14.0008 15.0005 16.6266 13.8759 19.6258 14.6257C21.3382 15.0525 22.562 16.2942 23.9173 17.6703C26.123 19.9087 28.676 22.5 34.2515 22.5C40.2512 22.5 44.0003 19.5008 45.5015 13.4993C43.2515 16.5 40.6266 17.6253 37.6268 16.875C35.9147 16.4479 34.6923 15.2065 33.3353 13.8305C31.131 11.5921 28.5787 9.00073 23.0015 9.00073ZM11.7515 22.5C5.7517 22.5 2.00264 25.4992 0.501465 31.5007C2.75123 28.5 5.376 27.3748 8.37576 28.125C10.0882 28.5522 11.312 29.7935 12.6673 31.1696C14.873 33.408 17.426 35.9993 23.0015 35.9993C29.0012 35.9993 32.7503 33.0005 34.2515 27.0004C32.0015 29.9997 29.3766 31.1243 26.3768 30.3743C24.6647 29.9475 23.4423 28.7058 22.0853 27.3298C19.881 25.0914 17.3287 22.5 11.7515 22.5Z" fill="#38BDF8"/>
</g>
<defs>
<clipPath id="clip0_17_38">
<rect width="45" height="45" fill="white" transform="translate(0.5)"/>
</clipPath>
</defs>
</svg>
