<svg width="35" height="35" viewBox="0 0 35 35" fill="none" xmlns="http://www.w3.org/2000/svg">
<g clip-path="url(#clip0_3_28)">
<path d="M6.19885 12.8516H33.4524V32.9957H6.19885V12.8516Z" fill="white"/>
<path d="M0.410156 17.4753V34.5652H34.5898V0.385498H0.410156V17.4753ZM27.9535 16.1082C28.7722 16.2981 29.5162 16.7263 30.0918 17.3386C30.4086 17.6685 30.6841 18.0358 30.9121 18.4324C30.9121 18.4761 29.4355 19.4742 28.5359 20.032C28.5031 20.0539 28.3719 19.9117 28.227 19.6957C28.0627 19.4123 27.8294 19.1751 27.5487 19.0063C27.268 18.8376 26.9492 18.7426 26.6219 18.7304C25.5855 18.6593 24.9184 19.2035 24.9238 20.0976C24.9155 20.3202 24.9665 20.541 25.0715 20.7374C25.2984 21.2105 25.7223 21.4921 27.0512 22.0664C29.4984 23.1191 30.5457 23.8136 31.1965 24.8007C31.9238 25.8945 32.0852 27.6609 31.593 28.9679C31.0461 30.3898 29.7062 31.355 27.8113 31.6749C26.9459 31.7741 26.0714 31.765 25.2082 31.6476C23.8852 31.4295 22.6666 30.7943 21.7301 29.8347C21.4156 29.4874 20.8031 28.5824 20.8414 28.5167C20.941 28.4424 21.0462 28.3756 21.1559 28.3171L22.4219 27.6171L23.4035 27.0484L23.6086 27.3519C23.9548 27.8469 24.3952 28.2687 24.9047 28.5933C25.9984 29.1675 27.4914 29.0882 28.2297 28.4238C28.4776 28.1803 28.6322 27.8576 28.6667 27.5119C28.7012 27.1661 28.6133 26.8192 28.4184 26.5316C28.1449 26.1515 27.598 25.8316 26.0695 25.1644C24.3059 24.4042 23.5457 23.9339 22.8512 23.1847C22.4177 22.6902 22.0976 22.1069 21.9133 21.4757C21.7759 20.7545 21.7556 20.0159 21.8531 19.2882C22.2168 17.5847 23.4937 16.3953 25.3586 16.0425C26.2222 15.9358 27.097 15.9598 27.9535 16.1136V16.1082ZM19.9309 17.541V18.941H15.493V31.582H12.3457V18.9382H7.89687V17.571C7.88292 17.0996 7.89387 16.6277 7.92969 16.1574C7.95156 16.1328 10.6641 16.1328 13.9453 16.1328H19.9145L19.9309 17.541Z" fill="#007ACC"/>
</g>
<defs>
<clipPath id="clip0_3_28">
<rect width="35" height="35" fill="white"/>
</clipPath>
</defs>
</svg>
